<svg width="24" height="24" viewBox="0 0 24 24" fill="none" xmlns="http://www.w3.org/2000/svg">
  <!-- Background circle -->
  <circle cx="12" cy="12" r="12" fill="#B22234"/>
  
  <!-- White stripes -->
  <rect x="0" y="1.8" width="24" height="1.5" fill="#FFFFFF"/>
  <rect x="0" y="4.8" width="24" height="1.5" fill="#FFFFFF"/>
  <rect x="0" y="7.8" width="24" height="1.5" fill="#FFFFFF"/>
  <rect x="0" y="10.8" width="24" height="1.5" fill="#FFFFFF"/>
  <rect x="0" y="13.8" width="24" height="1.5" fill="#FFFFFF"/>
  <rect x="0" y="16.8" width="24" height="1.5" fill="#FFFFFF"/>
  <rect x="0" y="19.8" width="24" height="1.5" fill="#FFFFFF"/>
  
  <!-- Blue field -->
  <rect x="0" y="0" width="10" height="12" fill="#3C3B6E"/>
  
  <!-- White stars -->
  <circle cx="1.5" cy="1.5" r="0.3" fill="#FFFFFF"/>
  <circle cx="3" cy="1.5" r="0.3" fill="#FFFFFF"/>
  <circle cx="4.5" cy="1.5" r="0.3" fill="#FFFFFF"/>
  <circle cx="6" cy="1.5" r="0.3" fill="#FFFFFF"/>
  <circle cx="7.5" cy="1.5" r="0.3" fill="#FFFFFF"/>
  <circle cx="9" cy="1.5" r="0.3" fill="#FFFFFF"/>
  
  <circle cx="2.25" cy="2.5" r="0.3" fill="#FFFFFF"/>
  <circle cx="3.75" cy="2.5" r="0.3" fill="#FFFFFF"/>
  <circle cx="5.25" cy="2.5" r="0.3" fill="#FFFFFF"/>
  <circle cx="6.75" cy="2.5" r="0.3" fill="#FFFFFF"/>
  <circle cx="8.25" cy="2.5" r="0.3" fill="#FFFFFF"/>
  
  <circle cx="1.5" cy="3.5" r="0.3" fill="#FFFFFF"/>
  <circle cx="3" cy="3.5" r="0.3" fill="#FFFFFF"/>
  <circle cx="4.5" cy="3.5" r="0.3" fill="#FFFFFF"/>
  <circle cx="6" cy="3.5" r="0.3" fill="#FFFFFF"/>
  <circle cx="7.5" cy="3.5" r="0.3" fill="#FFFFFF"/>
  <circle cx="9" cy="3.5" r="0.3" fill="#FFFFFF"/>
  
  <circle cx="2.25" cy="4.5" r="0.3" fill="#FFFFFF"/>
  <circle cx="3.75" cy="4.5" r="0.3" fill="#FFFFFF"/>
  <circle cx="5.25" cy="4.5" r="0.3" fill="#FFFFFF"/>
  <circle cx="6.75" cy="4.5" r="0.3" fill="#FFFFFF"/>
  <circle cx="8.25" cy="4.5" r="0.3" fill="#FFFFFF"/>
  
  <circle cx="1.5" cy="5.5" r="0.3" fill="#FFFFFF"/>
  <circle cx="3" cy="5.5" r="0.3" fill="#FFFFFF"/>
  <circle cx="4.5" cy="5.5" r="0.3" fill="#FFFFFF"/>
  <circle cx="6" cy="5.5" r="0.3" fill="#FFFFFF"/>
  <circle cx="7.5" cy="5.5" r="0.3" fill="#FFFFFF"/>
  <circle cx="9" cy="5.5" r="0.3" fill="#FFFFFF"/>
</svg>
